<?xml version="1.0" encoding="utf-8"?>
<!-- Generator: Adobe Illustrator 27.5.0, SVG Export Plug-In . SVG Version: 6.00 Build 0)  -->
<svg version="1.1" xmlns="http://www.w3.org/2000/svg" xmlns:xlink="http://www.w3.org/1999/xlink" x="0px" y="0px"
	 viewBox="0 0 841.89 566.929" style="enable-background:new 0 0 841.89 566.929;" xml:space="preserve">
<g id="BG">
	<rect y="0" style="fill:#FFFFFF;" width="841.89" height="566.929"/>
</g>
<g id="graphics">
	<g>
		<path style="fill:#8C9799;" d="M296.283,422.805c-0.242-0.473-0.566-0.862-0.972-1.17c-0.407-0.308-0.873-0.532-1.401-0.676
			c-0.527-0.143-1.088-0.214-1.681-0.214c-0.461,0-0.929,0.049-1.401,0.147c-0.473,0.1-0.906,0.264-1.302,0.495
			c-0.395,0.23-0.714,0.533-0.956,0.906c-0.242,0.374-0.363,0.835-0.363,1.384c0,0.462,0.116,0.853,0.346,1.171
			c0.231,0.318,0.522,0.588,0.874,0.808c0.351,0.22,0.736,0.4,1.154,0.544c0.417,0.143,0.802,0.258,1.153,0.346l2.769,0.626
			c0.593,0.088,1.181,0.247,1.763,0.478c0.582,0.23,1.099,0.532,1.549,0.906c0.45,0.374,0.818,0.835,1.104,1.384
			c0.286,0.55,0.429,1.198,0.429,1.945c0,0.923-0.209,1.709-0.626,2.356c-0.417,0.648-0.951,1.176-1.599,1.582
			c-0.648,0.407-1.379,0.697-2.192,0.874c-0.813,0.175-1.615,0.264-2.406,0.264c-2,0-3.62-0.473-4.861-1.418
			c-1.242-0.944-1.951-2.461-2.126-4.549h2.076c0.088,1.407,0.599,2.468,1.533,3.181c0.934,0.715,2.093,1.071,3.478,1.071
			c0.505,0,1.027-0.054,1.565-0.164c0.539-0.11,1.039-0.297,1.5-0.561c0.461-0.264,0.84-0.599,1.137-1.006
			c0.296-0.406,0.445-0.906,0.445-1.499c0-0.506-0.104-0.929-0.313-1.27c-0.209-0.34-0.489-0.626-0.841-0.857
			c-0.352-0.231-0.753-0.423-1.203-0.577c-0.451-0.153-0.907-0.285-1.368-0.396l-2.67-0.593c-0.681-0.176-1.308-0.38-1.879-0.61
			c-0.572-0.23-1.071-0.516-1.5-0.857c-0.428-0.341-0.764-0.759-1.005-1.253c-0.242-0.494-0.362-1.104-0.362-1.829
			c0-0.857,0.192-1.593,0.577-2.209c0.384-0.614,0.884-1.109,1.5-1.482c0.615-0.374,1.302-0.648,2.06-0.824
			c0.758-0.176,1.511-0.264,2.258-0.264c0.857,0,1.653,0.11,2.39,0.329c0.736,0.22,1.384,0.56,1.944,1.022
			c0.56,0.461,1.005,1.032,1.335,1.714c0.33,0.681,0.516,1.482,0.561,2.406h-2.077C296.656,423.832,296.524,423.277,296.283,422.805
			z"/>
		<path style="fill:#8C9799;" d="M310.851,419.492v3.23h0.066c0.483-1.186,1.269-2.104,2.357-2.753
			c1.088-0.647,2.324-0.972,3.708-0.972c1.296,0,2.423,0.242,3.379,0.725c0.956,0.483,1.752,1.138,2.39,1.961
			c0.637,0.824,1.109,1.78,1.418,2.868c0.308,1.088,0.461,2.236,0.461,3.444c0,1.209-0.154,2.357-0.461,3.444
			c-0.308,1.088-0.78,2.044-1.418,2.867c-0.637,0.824-1.434,1.473-2.39,1.945c-0.956,0.472-2.082,0.709-3.379,0.709
			c-0.615,0-1.231-0.078-1.846-0.232c-0.615-0.153-1.186-0.384-1.714-0.692c-0.527-0.307-0.995-0.691-1.401-1.153
			c-0.407-0.461-0.72-0.999-0.94-1.615h-0.066v9.493h-2.077v-23.271H310.851z M322.239,425.376
			c-0.209-0.868-0.539-1.643-0.989-2.324c-0.451-0.681-1.027-1.236-1.73-1.664c-0.704-0.429-1.549-0.642-2.538-0.642
			c-1.142,0-2.099,0.197-2.868,0.593c-0.769,0.396-1.384,0.923-1.846,1.582c-0.462,0.659-0.786,1.429-0.972,2.308
			c-0.187,0.879-0.28,1.802-0.28,2.768c0,0.879,0.104,1.753,0.313,2.62c0.208,0.868,0.549,1.643,1.022,2.324
			c0.472,0.682,1.088,1.235,1.846,1.664c0.758,0.429,1.686,0.643,2.785,0.643c0.989,0,1.835-0.214,2.538-0.643
			c0.703-0.429,1.28-0.982,1.73-1.664c0.45-0.681,0.78-1.456,0.989-2.324c0.208-0.867,0.313-1.741,0.313-2.62
			S322.447,426.244,322.239,425.376z"/>
		<path style="fill:#8C9799;" d="M335.983,430.88c0.208,0.803,0.544,1.522,1.005,2.159c0.461,0.638,1.043,1.165,1.747,1.582
			c0.703,0.418,1.549,0.626,2.538,0.626c1.516,0,2.703-0.396,3.56-1.186c0.857-0.791,1.45-1.846,1.78-3.164h2.077
			c-0.44,1.934-1.247,3.428-2.423,4.482c-1.176,1.055-2.84,1.583-4.993,1.583c-1.341,0-2.5-0.237-3.478-0.709
			c-0.978-0.473-1.775-1.121-2.39-1.945c-0.616-0.823-1.071-1.779-1.368-2.867c-0.296-1.088-0.445-2.235-0.445-3.444
			c0-1.121,0.148-2.219,0.445-3.296c0.297-1.076,0.752-2.038,1.368-2.885c0.615-0.845,1.412-1.526,2.39-2.043
			c0.978-0.517,2.137-0.774,3.478-0.774c1.362,0,2.526,0.274,3.494,0.823c0.967,0.55,1.752,1.27,2.357,2.159
			c0.604,0.891,1.038,1.912,1.302,3.065c0.264,1.154,0.374,2.324,0.33,3.511H335.67C335.67,429.304,335.774,430.078,335.983,430.88z
			 M346.267,424.535c-0.253-0.726-0.609-1.368-1.071-1.928c-0.462-0.561-1.022-1.011-1.681-1.352
			c-0.659-0.341-1.407-0.511-2.241-0.511c-0.857,0-1.615,0.17-2.274,0.511c-0.659,0.341-1.22,0.791-1.681,1.352
			c-0.461,0.559-0.83,1.208-1.104,1.944c-0.275,0.736-0.457,1.489-0.544,2.258h11.009
			C346.657,426.019,346.52,425.261,346.267,424.535z"/>
		<path style="fill:#8C9799;" d="M359.682,430.88c0.208,0.803,0.544,1.522,1.005,2.159c0.461,0.638,1.043,1.165,1.747,1.582
			c0.703,0.418,1.549,0.626,2.538,0.626c1.516,0,2.703-0.396,3.56-1.186c0.857-0.791,1.45-1.846,1.78-3.164h2.077
			c-0.44,1.934-1.248,3.428-2.423,4.482c-1.176,1.055-2.84,1.583-4.993,1.583c-1.341,0-2.5-0.237-3.478-0.709
			c-0.978-0.473-1.775-1.121-2.39-1.945c-0.616-0.823-1.071-1.779-1.368-2.867c-0.296-1.088-0.445-2.235-0.445-3.444
			c0-1.121,0.148-2.219,0.445-3.296c0.297-1.076,0.752-2.038,1.368-2.885c0.615-0.845,1.412-1.526,2.39-2.043
			c0.978-0.517,2.137-0.774,3.478-0.774c1.362,0,2.526,0.274,3.494,0.823c0.967,0.55,1.752,1.27,2.357,2.159
			c0.604,0.891,1.038,1.912,1.302,3.065c0.264,1.154,0.374,2.324,0.33,3.511h-13.086
			C359.369,429.304,359.473,430.078,359.682,430.88z M369.966,424.535c-0.252-0.726-0.609-1.368-1.071-1.928
			c-0.462-0.561-1.022-1.011-1.681-1.352c-0.659-0.341-1.407-0.511-2.241-0.511c-0.857,0-1.615,0.17-2.275,0.511
			c-0.659,0.341-1.22,0.791-1.681,1.352c-0.461,0.559-0.83,1.208-1.104,1.944c-0.275,0.736-0.457,1.489-0.544,2.258h11.009
			C370.356,426.019,370.218,425.261,369.966,424.535z"/>
		<path style="fill:#8C9799;" d="M394.901,436.5v-3.23h-0.066c-0.22,0.55-0.544,1.055-0.973,1.517
			c-0.428,0.461-0.918,0.852-1.466,1.17c-0.55,0.319-1.137,0.565-1.764,0.742c-0.626,0.175-1.247,0.264-1.862,0.264
			c-1.297,0-2.422-0.237-3.378-0.709c-0.956-0.473-1.752-1.121-2.39-1.945c-0.638-0.823-1.11-1.779-1.418-2.867
			c-0.308-1.088-0.462-2.235-0.462-3.444c0-1.208,0.153-2.356,0.462-3.444c0.308-1.088,0.78-2.044,1.418-2.868
			c0.637-0.823,1.433-1.478,2.39-1.961c0.956-0.482,2.081-0.725,3.378-0.725c0.637,0,1.258,0.077,1.862,0.23
			c0.604,0.154,1.17,0.391,1.698,0.709c0.527,0.318,0.994,0.708,1.4,1.17c0.407,0.461,0.72,1,0.939,1.615h0.066v-9.757h2.077V436.5
			H394.901z M383.513,430.616c0.208,0.868,0.538,1.643,0.989,2.324c0.45,0.682,1.027,1.235,1.73,1.664
			c0.703,0.429,1.549,0.643,2.538,0.643c1.099,0,2.027-0.214,2.785-0.643c0.758-0.429,1.373-0.982,1.846-1.664
			c0.473-0.681,0.813-1.456,1.022-2.324c0.208-0.867,0.313-1.741,0.313-2.62s-0.104-1.752-0.313-2.62
			c-0.209-0.868-0.549-1.643-1.022-2.324c-0.473-0.681-1.087-1.236-1.846-1.664c-0.758-0.429-1.686-0.642-2.785-0.642
			c-0.989,0-1.835,0.214-2.538,0.642c-0.704,0.428-1.28,0.983-1.73,1.664c-0.451,0.682-0.78,1.456-0.989,2.324
			c-0.209,0.868-0.313,1.741-0.313,2.62S383.304,429.749,383.513,430.616z"/>
		<path style="fill:#8C9799;" d="M423.511,419.492l5.34,14.932h0.066l5.273-14.932h2.143l-6.361,17.008h-2.209l-6.56-17.008H423.511
			z"/>
		<path style="fill:#8C9799;" d="M446.502,430.88c0.208,0.803,0.543,1.522,1.005,2.159c0.462,0.638,1.043,1.165,1.747,1.582
			c0.703,0.418,1.549,0.626,2.538,0.626c1.516,0,2.702-0.396,3.56-1.186c0.857-0.791,1.45-1.846,1.78-3.164h2.076
			c-0.439,1.934-1.247,3.428-2.423,4.482c-1.176,1.055-2.84,1.583-4.993,1.583c-1.341,0-2.5-0.237-3.478-0.709
			c-0.979-0.473-1.774-1.121-2.39-1.945c-0.615-0.823-1.071-1.779-1.368-2.867c-0.297-1.088-0.444-2.235-0.444-3.444
			c0-1.121,0.148-2.219,0.444-3.296c0.297-1.076,0.753-2.038,1.368-2.885c0.615-0.845,1.411-1.526,2.39-2.043
			c0.978-0.517,2.137-0.774,3.478-0.774c1.362,0,2.526,0.274,3.493,0.823c0.967,0.55,1.753,1.27,2.357,2.159
			c0.604,0.891,1.038,1.912,1.302,3.065c0.264,1.154,0.373,2.324,0.329,3.511h-13.085
			C446.188,429.304,446.292,430.078,446.502,430.88z M456.785,424.535c-0.253-0.726-0.609-1.368-1.071-1.928
			c-0.461-0.561-1.022-1.011-1.681-1.352c-0.659-0.341-1.406-0.511-2.241-0.511c-0.857,0-1.615,0.17-2.274,0.511
			c-0.659,0.341-1.22,0.791-1.681,1.352c-0.462,0.559-0.83,1.208-1.104,1.944c-0.275,0.736-0.456,1.489-0.544,2.258h11.009
			C457.175,426.019,457.038,425.261,456.785,424.535z"/>
		<path style="fill:#8C9799;" d="M470.711,412.966v9.46h0.066c0.395-1.032,1.099-1.862,2.109-2.488
			c1.011-0.627,2.121-0.939,3.329-0.939c1.187,0,2.181,0.153,2.983,0.461c0.802,0.309,1.444,0.742,1.928,1.302
			c0.483,0.56,0.824,1.248,1.022,2.06c0.197,0.814,0.296,1.726,0.296,2.735V436.5h-2.076v-10.613c0-0.726-0.066-1.401-0.197-2.027
			c-0.132-0.626-0.363-1.17-0.692-1.632c-0.33-0.461-0.774-0.823-1.335-1.087c-0.561-0.264-1.259-0.395-2.093-0.395
			c-0.836,0-1.577,0.147-2.226,0.444c-0.648,0.297-1.197,0.704-1.648,1.22c-0.451,0.517-0.803,1.132-1.055,1.846
			c-0.253,0.715-0.391,1.489-0.412,2.324v9.921h-2.077v-23.534H470.711z"/>
		<path style="fill:#8C9799;" d="M495.068,412.966v3.329h-2.076v-3.329H495.068z M495.068,419.492V436.5h-2.076v-17.008H495.068z"/>
		<path style="fill:#8C9799;" d="M516.065,421.832c-0.77-0.725-1.846-1.087-3.231-1.087c-0.989,0-1.857,0.209-2.603,0.626
			c-0.748,0.418-1.368,0.967-1.862,1.647c-0.495,0.682-0.868,1.456-1.121,2.324c-0.253,0.868-0.379,1.753-0.379,2.653
			c0,0.901,0.126,1.785,0.379,2.653c0.253,0.868,0.626,1.642,1.121,2.324c0.494,0.681,1.114,1.23,1.862,1.647
			c0.746,0.418,1.614,0.626,2.603,0.626c0.637,0,1.241-0.12,1.813-0.362c0.571-0.241,1.077-0.577,1.517-1.005
			c0.439-0.429,0.802-0.939,1.088-1.533c0.285-0.593,0.461-1.241,0.527-1.944h2.076c-0.285,2.065-1.044,3.675-2.274,4.829
			c-1.23,1.153-2.813,1.73-4.746,1.73c-1.297,0-2.444-0.237-3.444-0.709c-1-0.473-1.841-1.115-2.521-1.929
			c-0.682-0.813-1.198-1.763-1.549-2.851c-0.352-1.088-0.527-2.247-0.527-3.478c0-1.23,0.175-2.39,0.527-3.478
			c0.351-1.088,0.867-2.038,1.549-2.851c0.681-0.814,1.521-1.462,2.521-1.945c1-0.482,2.147-0.725,3.444-0.725
			c1.823,0,3.367,0.483,4.631,1.45c1.264,0.967,2.016,2.428,2.258,4.384h-2.076C517.36,423.558,516.833,422.558,516.065,421.832z"/>
		<path style="fill:#8C9799;" d="M531.457,412.966V436.5h-2.076v-23.534H531.457z"/>
		<path style="fill:#8C9799;" d="M543.571,430.88c0.208,0.803,0.543,1.522,1.005,2.159c0.462,0.638,1.043,1.165,1.747,1.582
			c0.703,0.418,1.549,0.626,2.538,0.626c1.516,0,2.702-0.396,3.56-1.186c0.857-0.791,1.45-1.846,1.78-3.164h2.076
			c-0.439,1.934-1.247,3.428-2.423,4.482c-1.176,1.055-2.84,1.583-4.993,1.583c-1.341,0-2.5-0.237-3.477-0.709
			c-0.979-0.473-1.774-1.121-2.39-1.945c-0.615-0.823-1.071-1.779-1.368-2.867c-0.297-1.088-0.444-2.235-0.444-3.444
			c0-1.121,0.148-2.219,0.444-3.296c0.297-1.076,0.753-2.038,1.368-2.885c0.615-0.845,1.411-1.526,2.39-2.043
			c0.977-0.517,2.137-0.774,3.477-0.774c1.362,0,2.526,0.274,3.493,0.823c0.967,0.55,1.753,1.27,2.357,2.159
			c0.603,0.891,1.038,1.912,1.302,3.065c0.264,1.154,0.373,2.324,0.329,3.511h-13.085
			C543.258,429.304,543.361,430.078,543.571,430.88z M553.854,424.535c-0.253-0.726-0.609-1.368-1.071-1.928
			c-0.461-0.561-1.022-1.011-1.681-1.352c-0.659-0.341-1.406-0.511-2.241-0.511c-0.857,0-1.615,0.17-2.274,0.511
			c-0.659,0.341-1.22,0.791-1.681,1.352c-0.462,0.559-0.83,1.208-1.105,1.944c-0.275,0.736-0.456,1.489-0.544,2.258h11.009
			C554.244,426.019,554.107,425.261,553.854,424.535z"/>
	</g>
	<g>
		<g>
			<path style="fill:#475154;" d="M251.184,352.868c4.267,0,7.912,1.373,10.937,4.117c3.023,2.746,4.535,6.059,4.535,9.939
				c0,3.582-1.309,6.691-3.924,9.328c-2.617,2.574-5.876,4.086-9.779,4.536l14.347,16.148h-13.992l-13.253-15.986H219.95v15.986
				h-12.03v-44.068H251.184z M219.95,371.235l30.076,0.032c1.415,0,2.541-0.407,3.377-1.222c0.901-0.837,1.34-1.866,1.319-3.088
				c0.02-1.287-0.418-2.316-1.319-3.088c-0.836-0.858-1.962-1.256-3.377-1.191H219.95V371.235z"/>
			<path style="fill:#475154;" d="M337.514,352.868v9.811h-42.396v7.206h36.734v9.649h-36.734v7.592h42.396v9.811h-54.426v-44.068
				H337.514z"/>
			<path style="fill:#475154;" d="M399.075,352.868c2.616,0,5.082,0.568,7.398,1.705c2.401,1.137,4.278,2.702,5.629,4.696
				c1.479,1.995,2.188,4.149,2.123,6.466v18.334c0.064,2.316-0.654,4.472-2.155,6.467c-1.415,1.994-3.292,3.559-5.629,4.695
				c-2.252,1.137-4.708,1.705-7.366,1.705h-46.77v-44.068H399.075z M364.335,387.126h32.199c1.608-0.064,2.948-0.568,4.021-1.512
				c1.094-1.029,1.641-2.24,1.641-3.635v-14.154c0-1.478-0.547-2.701-1.641-3.666c-1.072-1.051-2.412-1.545-4.021-1.48h-32.199
				V387.126z"/>
			<path style="fill:#475154;" d="M475.75,352.868c3.945,0,7.291,1.255,10.035,3.764c2.767,2.51,4.139,5.544,4.117,9.104v2.83
				h-12.029v-0.74c0-1.478-0.547-2.701-1.641-3.666c-1.072-1.051-2.412-1.545-4.022-1.48h-26.408
				c-1.543-0.021-2.885,0.482-4.021,1.512c-1.094,0.944-1.641,2.156-1.641,3.635v14.154c0,1.415,0.559,2.637,1.674,3.666
				c1.115,0.966,2.445,1.459,3.988,1.48h26.408c1.609-0.064,2.949-0.568,4.022-1.512c1.094-1.029,1.641-2.24,1.641-3.635v-0.676
				h12.029v2.766c0.022,3.561-1.35,6.595-4.117,9.104c-2.744,2.509-6.09,3.764-10.035,3.764h-33.486
				c-3.924,0-7.27-1.255-10.035-3.764c-2.746-2.509-4.117-5.543-4.117-9.104v-18.334c0-3.56,1.383-6.594,4.15-9.104
				c2.766-2.509,6.1-3.764,10.002-3.764H475.75z"/>
			<path style="fill:#475154;" d="M536.746,352.868l27.984,44.068h-12.963l-6.078-9.65h-29.818l-6.145,9.65h-12.932l27.986-44.068
				H536.746z M521.789,377.958h17.949l-8.943-14.152L521.789,377.958z"/>
			<path style="fill:#475154;" d="M617.855,352.868c4.266,0,7.912,1.373,10.936,4.117c3.023,2.746,4.535,6.059,4.535,9.939
				c0,3.582-1.309,6.691-3.924,9.328c-2.617,2.574-5.875,4.086-9.779,4.536l14.348,16.148h-13.992l-13.254-15.986h-20.104v15.986
				H574.59v-44.068H617.855z M586.621,371.235l30.076,0.032c1.414,0,2.541-0.407,3.377-1.222c0.9-0.837,1.34-1.866,1.318-3.088
				c0.021-1.287-0.418-2.316-1.318-3.088c-0.836-0.858-1.963-1.256-3.377-1.191h-30.076V371.235z"/>
		</g>
	</g>
	<g>
		<path style="fill:#BE1E2D;" d="M378.9,230.362c4.493,0,127.146,0,127.146,0s-3.003-5.18-10.722-11.873
			c-7.721-6.693-13.537-8.915-29.379-11.561c-17.182-2.872-75.064-2.115-83.419-1.218c-7.046,0.757-8.914,2.861-9.735,4.075
			c-1.54,2.271-1.491,4.585-1.099,7.787c0.287,2.347,0.872,4.851,1.4,7.06C374.409,230.152,377.38,230.362,378.9,230.362z"/>
		<path style="fill:#BE1E2D;" d="M516.212,234.08c2.503,0,12.528-2.255,14.783-5.009c2.256-2.757-1.754-5.763-4.761-7.268
			c-3.008-1.503-8.102-4.26-12.571-2.006c0,0-0.71,0-1.462,3.511C511.449,226.816,513.705,234.08,516.212,234.08z"/>
		<path style="fill:#BE1E2D;" d="M313.507,242.778c4.424,1.926,41.63-12.104,41.63-12.104s4.543-1.305,7.26-7.52
			c2.053-4.699,4.987-11.002,2.689-13.657c-0.466-0.539-1.854-1.933-6.007-0.42c-6.691,2.435-20.445,7.734-34.331,19.05
			C315.488,235.674,309.085,240.852,313.507,242.778z"/>
		<path style="fill:#BE1E2D;" d="M306.055,238.98c0.109,1.479,6.694-11.113,25.315-22.113c2.628-1.553-6.606-0.237-15.349,2.076
			c-4.468,1.182-13.782,3.159-14.691,6.305c-0.845,2.927,1.43,5.645,2.246,6.776C304.495,233.57,305.856,236.268,306.055,238.98z"/>
		<path style="fill:#BE1E2D;" d="M542.209,317.577c4.339-0.624,5.456-6.755,5.784-7.498c4.212-0.05,4.943,0.009,6.592,0
			c3.043-0.018,2.747-5.821,3.204-17.568c0.208-5.365,1.04-11.885,0.439-23.708c-0.713-14.064-10.672-27.814-18.724-27.978
			c-11.982-0.244-18.477,2.878-23.59,15.435c2.011-0.059,27.547,0.011,29.943,2.403c2.391,2.394,2.391,8.92,2.391,8.92
			s-26.894-0.707-35.116-0.162c-1.648,10.686-2.509,21.074-18.759,23.004c-25.641,3.045-50.823,1.958-59.111-12.158
			c-1.452-2.474-3.593-6.07-6.907-10.177c-14.104-0.14-38.678,0.362-40,0.362c-1.741,0-2.611-3.697-3.046-6.308
			c-0.707-4.244,1.521-3.63,31.607-5.362c-7.42-5.913-17.556-11.82-31.515-16.393c-33.881-11.094-42.123-3.916-47.159,7.179
			c-3.985,8.78-4.507,17.968-3.946,28.857c0.1,1.946-0.012,8.251,0,8.92c-7.586-0.426-20.455,0.641-21.134-13.453
			c-0.686-14.252,1.603-18.821,1.603-19.691c0-0.871-10.762-1.087-8.242-7.395c2.518-6.31-11.147,0.808-14.194,3.044
			c-1.805,0.608-4.231,2.788-5.037,6.311c-0.226,0.987-0.397,3.241-0.502,6.254c-3.635,2.75-6.365,14.326-6.365,28.194
			c0,9.879,1.385,18.593,3.497,23.783c0.618,1.521,2.357,4.669,3.885,5.582c-20.925,0.933-33.341,2.098-33.341,3.357
			c0,3.078,74.076,5.575,165.453,5.575c91.378,0,165.453-2.497,165.453-5.575C585.37,319.885,569.021,318.568,542.209,317.577z
			 M346.706,256.434c3.607,0,6.53,11.608,6.53,25.926c0,14.319-2.923,25.928-6.53,25.928c-3.606,0-6.53-11.608-6.53-25.928
			C340.176,268.042,343.1,256.434,346.706,256.434z M285.28,288.61c0-12.312,2.514-22.291,5.615-22.291
			c3.1,0,5.614,9.979,5.614,22.291c0,12.31-2.514,22.291-5.614,22.291C287.794,310.901,285.28,300.921,285.28,288.61z
			 M320.245,308.193c6.095,0.313,12.266,0.492,17.682,0.597c1.243,3.489,2.742,6.128,4.4,7.617
			c-9.449,0.169-18.351,0.369-26.598,0.594C317.501,315.904,319.074,312.729,320.245,308.193z M372.012,315.994
			c0.796-0.94,1.54-2.313,2.204-4.043c15.443-0.104,90.339-0.933,138.634-1.476c1.239,2.983,2.689,5.176,4.268,6.344
			c-27.291-0.668-60.874-1.063-97.2-1.063C403.259,315.757,387.177,315.84,372.012,315.994z"/>
	</g>
</g>
</svg>
